<?xml version="1.0" encoding="UTF-8" standalone="no"?><!DOCTYPE svg PUBLIC "-//W3C//DTD SVG 1.1//EN" "http://www.w3.org/Graphics/SVG/1.1/DTD/svg11.dtd"><svg width="100%" height="100%" viewBox="0 0 4500 1692" version="1.1" xmlns="http://www.w3.org/2000/svg" xmlns:xlink="http://www.w3.org/1999/xlink" xml:space="preserve" xmlns:serif="http://www.serif.com/" style="fill-rule:evenodd;clip-rule:evenodd;stroke-linejoin:round;stroke-miterlimit:2;"><rect id="Page-1" serif:id="Page 1" x="0" y="0" width="4500" height="1691.67" style="fill:none;"/><g id="Page-11" serif:id="Page 1"><g id="Capa-1" serif:id="Capa 1"><path d="M944.708,568.333l-678.358,-0l13.846,13.846l-0,373.796l-13.846,13.841l611.904,0l0,124.596l-611.904,0l13.846,13.846l-0,456.854l-131.525,0l-0,-1121.37l796.037,0l0,124.592Z" style="fill:#4d402b;fill-rule:nonzero;"/><path d="M1631.32,1070.88l-15.221,-13.846c-20.771,-149.517 -106.604,-256.117 -276.883,-256.117c-174.438,0 -260.275,110.759 -282.421,256.117l-15.233,13.846l589.758,-0Zm113.525,116.292l-704.662,-0l15.225,13.841c22.154,157.825 113.525,256.117 290.729,256.117c95.521,-0 177.204,-33.229 239.496,-94.146l89.987,88.604c-84.446,83.067 -197.967,127.367 -330.871,127.367c-287.954,-0 -420.858,-189.658 -420.858,-443.008c-0,-267.192 152.283,-456.855 415.325,-456.855c275.492,0 408.396,193.817 408.396,456.855c-0,20.766 -1.388,33.225 -2.767,51.225" style="fill:#4d402b;fill-rule:nonzero;"/><rect x="1809.85" y="402.208" width="127.367" height="1162.9" style="fill:#4d402b;"/><path d="M2560.17,1482.04c-78.912,65.067 -160.591,96.913 -251.962,96.913c-145.358,-0 -239.504,-96.913 -239.504,-268.575l-0,-487.308l6.921,-13.846l-110.746,-0l-0,-116.292l110.746,-0l-6.921,-13.842l-0,-138.441l127.371,-69.221l-0,207.662l-6.925,13.842l276.883,-0l0,116.292l-276.883,-0l6.925,13.846l-0,481.766c-0,102.446 45.687,153.671 119.054,153.671c60.916,0 106.604,-19.379 155.058,-65.071l89.983,88.604Z" style="fill:#4d402b;fill-rule:nonzero;"/><path d="M3219.1,1070.88l-15.221,-13.846c-20.771,-149.517 -106.604,-256.117 -276.883,-256.117c-174.438,0 -260.275,110.759 -282.421,256.117l-15.233,13.846l589.758,-0Zm113.525,116.292l-704.662,-0l15.224,13.841c22.155,157.825 113.525,256.117 290.73,256.117c95.52,-0 177.204,-33.229 239.495,-94.146l89.988,88.604c-84.446,83.067 -197.967,127.367 -330.871,127.367c-287.954,-0 -420.858,-189.658 -420.858,-443.008c-0,-267.192 152.283,-456.855 415.325,-456.855c275.492,0 408.396,193.817 408.396,456.855c-0,20.766 -1.388,33.225 -2.767,51.225" style="fill:#4d402b;fill-rule:nonzero;"/><path d="M4078.57,99.373l-1212.65,0c-152.204,0 -275.595,123.392 -275.595,275.6l-0,2.659c-0,152.212 123.391,275.6 275.595,275.6l1212.65,-0c152.209,-0 275.6,-123.388 275.6,-275.6l0,-2.659c0,-152.208 -123.391,-275.6 -275.6,-275.6m0,89.388c102.675,-0 186.209,83.533 186.209,186.212l-0,2.659c-0,102.679 -83.534,186.212 -186.209,186.212l-1212.65,0c-102.675,0 -186.208,-83.533 -186.208,-186.212l0,-2.659c0,-102.679 83.533,-186.212 186.208,-186.212l1212.65,-0" style="fill:#ff3e00;fill-rule:nonzero;"/><path d="M4074.49,570.345l-483.98,0c-152.208,0 -275.6,123.388 -275.6,275.6c0,152.208 123.392,275.6 275.6,275.6l483.979,0c152.209,0 275.601,-123.392 275.601,-275.6c-0,-152.212 -123.392,-275.6 -275.6,-275.6m-0,89.388c102.679,-0 186.212,83.533 186.212,186.212c0,102.679 -83.533,186.208 -186.212,186.208l-483.98,0c-102.679,0 -186.212,-83.529 -186.212,-186.208c-0,-102.679 83.533,-186.212 186.212,-186.212l483.98,-0" style="fill:#ff3e00;fill-rule:nonzero;"/><path d="M4074.49,1041.1c-152.209,0 -275.601,123.392 -275.601,275.6c0.001,152.208 123.392,275.6 275.601,275.6c152.208,0 275.6,-123.392 275.6,-275.6c-0.001,-152.208 -123.392,-275.6 -275.601,-275.6m0,89.387c102.68,0 186.213,83.534 186.213,186.213c-0,102.675 -83.533,186.208 -186.213,186.208c-102.679,0 -186.212,-83.533 -186.212,-186.208c-0,-102.679 83.533,-186.213 186.212,-186.213" style="fill:#ff3e00;fill-rule:nonzero;"/></g></g></svg>